<mxfile host="app.diagrams.net" modified="2021-09-15T07:29:47.176Z" agent="5.0 (Windows NT 10.0; Win64; x64) AppleWebKit/537.36 (KHTML, like Gecko) Chrome/93.0.4577.63 Safari/537.36" etag="qfVbHezUj6KaoyvQZ310" version="15.2.7" type="github" pages="2">
  <diagram id="GbYmg5WQzYSRm5WNjZwJ" name="第 1 页">
    <mxGraphModel dx="1422" dy="762" grid="1" gridSize="10" guides="1" tooltips="1" connect="1" arrows="1" fold="1" page="1" pageScale="1" pageWidth="827" pageHeight="1169" math="0" shadow="0">
      <root>
        <mxCell id="0" />
        <mxCell id="1" parent="0" />
        <mxCell id="444rKJljRE6CmUhxJVWM-1" value="" style="rounded=0;whiteSpace=wrap;html=1;" vertex="1" parent="1">
          <mxGeometry x="170" y="230" width="120" height="60" as="geometry" />
        </mxCell>
      </root>
    </mxGraphModel>
  </diagram>
  <diagram id="DK2eMNbAkHsn6DktyYwg" name="第 2 页">
    <mxGraphModel dx="1422" dy="762" grid="1" gridSize="10" guides="1" tooltips="1" connect="1" arrows="1" fold="1" page="1" pageScale="1" pageWidth="827" pageHeight="1169" math="0" shadow="0">
      <root>
        <mxCell id="8j3kry5cPmP5ZS3PCgt4-0" />
        <mxCell id="8j3kry5cPmP5ZS3PCgt4-1" parent="8j3kry5cPmP5ZS3PCgt4-0" />
      </root>
    </mxGraphModel>
  </diagram>
</mxfile>
